<?xml version="1.0" encoding="UTF-8" standalone="no"?>
<!-- Created with Inkscape (http://www.inkscape.org/) -->

<svg
   width="28.515928mm"
   height="28.374306mm"
   viewBox="0 0 28.515928 28.374306"
   version="1.1"
   id="svg5"
   inkscape:version="1.1.2 (0a00cf5339, 2022-02-04)"
   sodipodi:docname="linkedin.svg"
   xmlns:inkscape="http://www.inkscape.org/namespaces/inkscape"
   xmlns:sodipodi="http://sodipodi.sourceforge.net/DTD/sodipodi-0.dtd"
   xmlns="http://www.w3.org/2000/svg"
   xmlns:svg="http://www.w3.org/2000/svg">
  <sodipodi:namedview
     id="namedview7"
     pagecolor="#ffffff"
     bordercolor="#666666"
     borderopacity="1.0"
     inkscape:pageshadow="2"
     inkscape:pageopacity="0.0"
     inkscape:pagecheckerboard="0"
     inkscape:document-units="mm"
     showgrid="false"
     fit-margin-top="0"
     fit-margin-left="0"
     fit-margin-right="0"
     fit-margin-bottom="0"
     inkscape:zoom="0.69664703"
     inkscape:cx="127.7548"
     inkscape:cy="510.30147"
     inkscape:window-width="1850"
     inkscape:window-height="1016"
     inkscape:window-x="0"
     inkscape:window-y="0"
     inkscape:window-maximized="1"
     inkscape:current-layer="layer1" />
  <defs
     id="defs2" />
  <g
     inkscape:label="Ebene 1"
     inkscape:groupmode="layer"
     id="layer1"
     transform="translate(-23.617583,-13.366853)">
    <path
       style="fill:#000000;stroke-width:0.0846667"
       d="m 28.619537,41.683492 c -1.15167,-0.153344 -2.00152,-0.507588 -2.87021,-1.196399 -0.63913,-0.506787 -0.9297,-0.864583 -1.36821,-1.684791 -0.77117,-1.44242 -0.79557,-1.839116 -0.7494,-12.185115 0.0405,-9.07677 0.0254,-8.828123 0.61177,-10.062881 0.40789,-0.858891 0.80834,-1.379819 1.47445,-1.918011 0.68177,-0.550842 1.43328,-0.918367 2.28894,-1.119394 0.59095,-0.138839 1.33437,-0.150048 9.95199,-0.150048 h 9.31334 l 0.67351,0.195001 c 2.39169,0.692457 3.8848,2.541312 4.116,5.096666 0.0969,1.071442 0.0952,16.758622 -0.002,17.763007 -0.24945,2.578536 -1.6855,4.381698 -4.06929,5.109572 l -0.63361,0.193471 -9.10167,0.01501 c -5.00591,0.0083 -9.34197,-0.01698 -9.63567,-0.05609 z m 4.53509,-11.194458 0.0218,-5.737819 -1.84209,0.02282 -1.84209,0.02282 -0.0219,5.630334 c -0.0121,3.096683 -0.003,5.678718 0.0192,5.737856 0.0318,0.08327 0.44736,0.102367 1.84226,0.08467 l 1.80117,-0.02286 z m 5.43924,2.481329 c 0,-3.111457 0.01,-3.325004 0.17246,-3.759766 0.31081,-0.83072 1.18243,-1.408077 2.12573,-1.408077 0.70902,0 1.52163,0.480479 1.86149,1.100667 0.091,0.165979 0.12513,0.979225 0.15832,3.767666 l 0.0423,3.556 1.79917,0.02285 1.79917,0.02285 -0.002,-3.832851 c -0.002,-4.205983 -0.0309,-4.529523 -0.49807,-5.508457 -0.37091,-0.777165 -0.7697,-1.254511 -1.38056,-1.652501 -0.7066,-0.460366 -1.39052,-0.690557 -2.23349,-0.751733 -1.28295,-0.09311 -2.69647,0.395787 -3.60178,1.245738 -0.24669,0.231606 -0.4595,0.421102 -0.47291,0.421102 -0.0134,0 -0.0244,-0.32385 -0.0244,-0.719666 v -0.719667 h -1.651 -1.651 v 5.757333 5.757334 h 1.778 1.778 z m -6.33429,-10.086522 c 0.7084,-0.361401 1.11534,-1.037839 1.11575,-1.854654 4e-4,-0.81847 -0.41339,-1.484087 -1.17379,-1.888121 -0.46819,-0.24877 -1.30981,-0.24877 -1.778,0 -0.7556,0.401482 -1.143,1.041436 -1.143,1.888121 0,0.602089 0.12878,0.952152 0.50998,1.386316 0.61473,0.700142 1.63525,0.893717 2.46906,0.468338 z"
       id="path99" />
  </g>
</svg>
